<svg width="155" height="154" viewBox="0 0 155 154" fill="none" xmlns="http://www.w3.org/2000/svg">
<path fill-rule="evenodd" clip-rule="evenodd" d="M124.24 64.4233C119.876 42.2858 100.434 25.6666 77.0771 25.6666C58.533 25.6666 42.4271 36.19 34.4063 51.59C15.0921 53.6433 0.0771484 70.0058 0.0771484 89.8333C0.0771484 111.072 17.338 128.333 38.5771 128.333H121.994C139.704 128.333 154.077 113.96 154.077 96.25C154.077 79.31 140.923 65.5783 124.24 64.4233ZM121.994 115.5H38.5778C24.397 115.5 12.9112 104.014 12.9112 89.8333C12.9112 76.6792 22.7287 65.7067 35.7545 64.3592L42.6203 63.6533L45.8287 57.5575C51.9245 45.815 63.8595 38.5 77.0778 38.5C93.8895 38.5 108.391 50.435 111.664 66.9258L113.589 76.5508L123.406 77.2567C133.416 77.8983 141.245 86.3042 141.245 96.25C141.245 106.838 132.582 115.5 121.994 115.5ZM67.7737 83.4167H51.4112L77.0778 57.75L102.745 83.4167H86.382V102.667H67.7737V83.4167Z" fill="white"/>
</svg>
