<svg width="271" height="40" viewBox="0 0 271 40" fill="none" xmlns="http://www.w3.org/2000/svg">
<path fill-rule="evenodd" clip-rule="evenodd" d="M262.096 15.941C261.106 15.2791 259.941 14.9258 258.75 14.9258C257.152 14.9258 255.62 15.5605 254.49 16.6902C253.36 17.8199 252.726 19.3522 252.726 20.9498C252.726 22.1413 253.079 23.306 253.741 24.2966C254.403 25.2873 255.344 26.0594 256.444 26.5153C257.545 26.9713 258.756 27.0905 259.925 26.8581C261.093 26.6257 262.167 26.0519 263.009 25.2095C263.852 24.367 264.425 23.2936 264.658 22.1251C264.89 20.9565 264.771 19.7453 264.315 18.6445C263.859 17.5438 263.087 16.603 262.096 15.941Z" fill="#CC555F"/>
<path d="M0.00292969 38.7895L1.60647 34.2198C2.34023 34.7447 3.22621 35.0138 4.12795 34.9857C4.46769 35.0026 4.8067 34.9405 5.11832 34.8041C5.42993 34.6677 5.70563 34.4608 5.92369 34.1997C6.35589 33.6719 6.57293 32.8831 6.57484 31.8332V10.0721H12.5329V31.7901C12.5329 34.3221 11.8511 36.3234 10.4876 37.7941C9.12406 39.2647 7.22125 40 4.77913 40C2.68889 40 1.09682 39.5965 0.00292969 38.7895ZM6.88753 6.03025C6.22745 5.36275 5.85724 4.46187 5.85724 3.52312C5.85724 2.58436 6.22745 1.68348 6.88753 1.01598C7.24233 0.676322 7.66191 0.411608 8.12124 0.237633C8.58057 0.063658 9.07025 -0.0160126 9.56105 0.00336994C10.5457 -0.0384975 11.5069 0.311118 12.2346 0.975815C12.5699 1.28319 12.8356 1.6588 13.0137 2.07739C13.1919 2.49598 13.2783 2.94786 13.2673 3.40264C13.2822 3.88474 13.1982 4.36479 13.0206 4.81323C12.843 5.26168 12.5755 5.66902 12.2346 6.01018C11.8829 6.35527 11.4642 6.62466 11.0044 6.80177C10.5446 6.97889 10.0534 7.05996 9.56105 7.04C9.07024 7.05955 8.58051 6.97995 8.12115 6.80597C7.6618 6.63198 7.24224 6.36719 6.88753 6.02739V6.03025Z" fill="black"/>
<path d="M38.7285 10.0721V31.8303H33.0803V29.2486C32.3149 30.1755 31.3487 30.9161 30.2547 31.4144C29.1381 31.918 27.9255 32.1734 26.7005 32.1631C24.0002 32.1631 21.8612 31.3407 20.2835 29.6961C18.7058 28.0514 17.916 25.6112 17.9141 22.3755V10.0721H23.875V21.4346C23.875 24.94 25.2624 26.6927 28.0373 26.6927C28.6846 26.7182 29.3294 26.5992 29.9249 26.3441C30.5204 26.089 31.0515 25.7044 31.4796 25.2182C32.3459 24.2333 32.7791 22.7704 32.7791 20.8293V10.0721H38.7285Z" fill="black"/>
<path d="M46.1865 31.486C44.802 31.1496 43.4841 30.5823 42.2881 29.8079L44.276 25.2784C45.3011 25.9477 46.4208 26.4592 47.5978 26.7959C48.8366 27.1729 50.1239 27.3661 51.4188 27.3696C53.9393 27.3696 55.1996 26.7089 55.1996 25.3874C55.1996 24.7678 54.8582 24.3232 54.1698 24.0535C53.1421 23.7069 52.0789 23.4759 51 23.3651C49.5899 23.1581 48.1969 22.8485 46.8319 22.4385C45.7327 22.0862 44.7494 21.4429 43.9863 20.5768C43.1831 19.6876 42.7815 18.4206 42.7815 16.7759C42.7613 15.4674 43.1559 14.1861 43.9088 13.1156C44.7429 11.9879 45.8842 11.1244 47.1962 10.6286C48.8212 10.0029 50.5528 9.70083 52.2937 9.73932C53.754 9.74081 55.2094 9.91021 56.631 10.2442C57.8899 10.5113 59.0964 10.9833 60.2024 11.6412L58.2145 16.1276C56.4271 15.0545 54.3785 14.4947 52.2937 14.5098C51.0201 14.5098 50.0639 14.701 49.4251 15.0835C48.7864 15.466 48.4718 15.9527 48.4814 16.5436C48.473 16.8599 48.5694 17.1701 48.7557 17.4259C48.942 17.6817 49.2076 17.8687 49.5112 17.9578C50.5751 18.3183 51.6711 18.5757 52.7842 18.7266C54.1788 18.956 55.5575 19.2731 56.9121 19.6761C57.9925 20.0233 58.957 20.6603 59.7004 21.5177C60.4902 22.407 60.8851 23.65 60.8851 25.2469C60.9023 26.5386 60.4997 27.8009 59.7377 28.8441C58.8825 29.9644 57.7221 30.814 56.3958 31.291C54.7269 31.9026 52.9577 32.1946 51.1807 32.1515C49.4937 32.1534 47.8141 31.9296 46.1865 31.486Z" fill="black"/>
<path d="M77.813 30.7775C77.17 31.2638 76.4352 31.6151 75.653 31.8102C74.7739 32.0418 73.8684 32.1575 72.9594 32.1545C70.5154 32.1545 68.625 31.4937 67.2882 30.1723C65.9514 28.8508 65.2821 26.9097 65.2802 24.349V15.4106H62.1133V10.5569H65.2831V5.25864H71.2411V10.5569H76.3615V15.4106H71.2411V24.2659C71.2411 25.1838 71.4639 25.8924 71.9095 26.3915C72.1508 26.6466 72.4451 26.8457 72.7718 26.9745C73.0984 27.1034 73.4494 27.159 73.7999 27.1373C74.6728 27.1625 75.5261 26.8756 76.2066 26.3284L77.813 30.7775Z" fill="black"/>
<path d="M91.9834 1.82202H97.9414V31.8302H91.9834V1.82202Z" fill="black"/>
<path d="M119.106 12.1547C120.81 13.7592 121.663 16.1793 121.665 19.4151V31.8303H116.088V29.1195C114.968 31.1428 112.88 32.1545 109.824 32.1545C108.406 32.1866 107.001 31.8922 105.716 31.2939C104.622 30.7871 103.7 29.9727 103.062 28.9503C102.444 27.9266 102.126 26.7497 102.144 25.5539C102.144 23.5325 102.863 21.9414 104.302 20.7805C105.74 19.6197 107.962 19.0403 110.968 19.0422H115.704C115.704 17.6653 115.311 16.6096 114.522 15.8667C113.733 15.1237 112.549 14.7537 110.968 14.7537C109.869 14.7547 108.778 14.9398 107.741 15.3016C106.76 15.6222 105.846 16.1221 105.047 16.776L102.907 12.367C104.12 11.4874 105.48 10.8307 106.923 10.4278C108.493 9.96841 110.121 9.73656 111.757 9.73937C114.951 9.74511 117.4 10.5502 119.106 12.1547ZM114.026 27.1574C114.827 26.6436 115.422 25.8634 115.704 24.9543V22.7254H111.619C109.173 22.7254 107.95 23.5745 107.95 25.2727C107.935 25.6412 108.008 26.008 108.165 26.3421C108.321 26.6762 108.555 26.9676 108.848 27.1918C109.447 27.6661 110.268 27.9023 111.312 27.9004C112.27 27.9189 113.212 27.6609 114.026 27.1574Z" fill="black"/>
<path d="M128.96 31.486C127.58 31.1487 126.266 30.5814 125.073 29.8079L127.058 25.2784C128.084 25.9477 129.205 26.4592 130.383 26.7959C131.622 27.1731 132.909 27.3664 134.204 27.3696C136.723 27.3696 137.983 26.7089 137.985 25.3874C137.985 24.7678 137.64 24.3232 136.952 24.0535C135.929 23.7076 134.871 23.4767 133.797 23.3651C132.381 23.1595 130.982 22.8498 129.611 22.4385C128.512 22.087 127.528 21.4435 126.766 20.5768C125.963 19.6876 125.561 18.4206 125.561 16.7759C125.541 15.4674 125.935 14.1861 126.688 13.1156C127.521 11.988 128.662 11.1245 129.973 10.6286C131.599 10.0029 133.331 9.70083 135.073 9.73932C136.536 9.74281 137.993 9.9151 139.416 10.2528C140.675 10.5189 141.882 10.9909 142.988 11.6498L140.994 16.1276C139.206 15.0549 137.158 14.4951 135.073 14.5098C133.799 14.5098 132.843 14.701 132.205 15.0835C131.566 15.466 131.247 15.9517 131.249 16.5407C131.249 17.2139 131.594 17.6853 132.282 17.9549C133.349 18.3168 134.449 18.5743 135.567 18.7237C136.964 18.9536 138.346 19.2717 139.703 19.6761C140.784 20.0218 141.749 20.6591 142.491 21.5177C143.281 22.407 143.676 23.65 143.676 25.2469C143.693 26.5386 143.291 27.8009 142.529 28.8441C141.672 29.9645 140.511 30.8141 139.184 31.291C137.516 31.9029 135.748 32.1948 133.972 32.1515C132.279 32.1547 130.593 31.9309 128.96 31.486Z" fill="black"/>
<path d="M167.35 22.7254H151.803C152.04 24.0017 152.75 25.1416 153.791 25.9181C154.835 26.7022 156.133 27.0932 157.686 27.0913C158.659 27.1102 159.625 26.9387 160.532 26.5865C161.405 26.2196 162.192 25.6755 162.844 24.9887L165.999 28.6289C164.064 30.9754 161.237 32.1486 157.52 32.1486C155.382 32.1924 153.267 31.6992 151.37 30.7144C149.647 29.8119 148.219 28.4327 147.259 26.7414C146.273 24.9757 145.772 22.9804 145.807 20.9583C145.779 18.9456 146.273 16.9598 147.242 15.1953C148.156 13.5178 149.519 12.1275 151.177 11.1793C152.869 10.2474 154.767 9.75352 156.699 9.7425C158.63 9.73148 160.533 10.2037 162.236 11.1162C163.867 12.0353 165.2 13.4046 166.074 15.0605C167.034 16.8992 167.513 18.9507 167.468 21.0243C167.465 21.1132 167.428 21.6783 167.35 22.7254ZM153.409 15.7289C152.463 16.5922 151.865 17.7716 151.728 19.045H161.851C161.705 17.7802 161.108 16.6104 160.17 15.749C159.248 14.9246 158.045 14.4834 156.808 14.5155C155.562 14.4788 154.348 14.9143 153.409 15.7346V15.7289Z" fill="black"/>
<path d="M206.699 26.6525C206.653 26.7615 206.604 26.8676 206.555 26.9738C205.828 28.5308 204.646 29.831 203.165 30.7029C201.443 31.7009 199.48 32.2051 197.49 32.1602C195.433 32.1937 193.402 31.7 191.59 30.7259C189.966 29.8509 188.604 28.5587 187.646 26.9824H197.648C199.589 26.9231 201.067 25.9267 202.08 23.9933L206.699 26.6525Z" fill="black"/>
<path d="M206.698 15.2901L202.074 17.9177C201.006 15.9231 199.466 14.9258 197.452 14.9258H187.647C188.607 13.3547 189.967 12.0675 191.589 11.1966C193.401 10.2225 195.432 9.72877 197.49 9.76232C199.476 9.71542 201.438 10.2113 203.164 11.1966C204.646 12.0619 205.824 13.3645 206.537 14.9258C206.594 15.0462 206.646 15.1667 206.698 15.2901Z" fill="black"/>
<path d="M248.181 10.5569V14.9258H233.933V10.5569H237.105V5.25867H243.063V10.5569H248.181Z" fill="black"/>
<path d="M249.633 30.7775C248.991 31.2638 248.257 31.6151 247.476 31.8102C246.597 32.043 245.691 32.1588 244.782 32.1545C242.338 32.1545 240.448 31.4937 239.111 30.1723C238.245 29.2909 237.648 28.1816 237.39 26.9738H244.601C244.93 27.0874 245.275 27.1427 245.622 27.1373C246.025 27.1403 246.426 27.0852 246.813 26.9738C247.257 26.8418 247.671 26.6224 248.029 26.3284L248.262 26.9738L249.633 30.7775Z" fill="black"/>
<path d="M180.015 10.5568C181.337 9.99494 182.762 9.71925 184.198 9.74791V15.5711C183.535 15.5195 183.091 15.4908 182.861 15.4908C181.155 15.4908 179.817 15.9966 178.845 17.0083C177.874 18.0199 177.39 19.5365 177.394 21.5579V31.8302H171.436V10.0721H177.127V12.9406C177.843 11.8875 178.846 11.0606 180.015 10.5568Z" fill="black"/>
<path d="M230.841 10.0721V31.8303H225.187V29.2486C224.42 30.1739 223.453 30.9134 222.359 31.4115C221.243 31.9154 220.031 32.1709 218.807 32.1602C216.107 32.1602 213.968 31.3379 212.39 29.6932C211.654 28.9147 211.091 27.9901 210.735 26.9795C210.698 26.8877 210.666 26.7931 210.635 26.6927H220.15C220.244 26.6927 220.339 26.6927 220.437 26.6927C221.036 26.6829 221.627 26.5474 222.17 26.2949C222.714 26.0424 223.198 25.6785 223.592 25.2268C224.457 24.2419 224.889 22.779 224.889 20.8379V10.0807L230.841 10.0721Z" fill="black"/>
<path d="M215.979 10.0721H210.021V14.9258H215.979V10.0721Z" fill="black"/>
</svg>
